<svg width="768" height="768" viewBox="0 0 768 768" fill="none" xmlns="http://www.w3.org/2000/svg">
<path d="M180.875 359.536H179.125L148.076 490H123.879L87.7277 279.654H112.071L124.753 363.909L137.435 451.517H139.039L168.484 327.758H191.516L220.961 451.517H222.565L235.247 363.909L247.929 279.654H272.272L236.121 490H211.924L180.875 359.536Z" fill="black"/>
<path d="M637.999 425.57V405.016H589.458V383.005H663.946V427.756C663.946 467.26 634.209 494.373 591.79 494.373C542.374 494.373 513.803 461.138 513.803 403.558V366.096C513.803 308.517 542.374 275.281 591.79 275.281C635.521 275.281 662.926 301.957 663.946 345.542H637.999C636.833 318.137 618.174 299.625 591.353 299.625C557.388 299.625 539.75 322.51 539.75 366.096V403.558C539.75 447.144 557.534 470.03 591.498 470.03C620.215 470.03 637.999 453.12 637.999 425.57Z" fill="black"/>
</svg>
